<mxfile host="app.diagrams.net" modified="2024-07-17T06:57:46.489Z" agent="Mozilla/5.0 (Macintosh; Intel Mac OS X 10_15_7) AppleWebKit/537.36 (KHTML, like Gecko) Chrome/126.0.0.0 Safari/537.36" etag="pi1jYC1z5nW3_kOn13Wx" version="24.7.0" type="github">
  <diagram id="C5RBs43oDa-KdzZeNtuy" name="Page-1">
    <mxGraphModel dx="954" dy="606" grid="1" gridSize="10" guides="1" tooltips="1" connect="1" arrows="1" fold="1" page="1" pageScale="1" pageWidth="3300" pageHeight="4681" background="#ffffff" math="0" shadow="0">
      <root>
        <mxCell id="WIyWlLk6GJQsqaUBKTNV-0" />
        <mxCell id="WIyWlLk6GJQsqaUBKTNV-1" parent="WIyWlLk6GJQsqaUBKTNV-0" />
        <mxCell id="WIyWlLk6GJQsqaUBKTNV-3" value="工作台" style="rounded=1;whiteSpace=wrap;html=1;fontSize=12;glass=0;strokeWidth=1;shadow=0;arcSize=40;" parent="WIyWlLk6GJQsqaUBKTNV-1" vertex="1">
          <mxGeometry x="160" y="10" width="120" height="40" as="geometry" />
        </mxCell>
        <mxCell id="8Cwg3FQqk2ypC7bNWkIQ-2" value="" style="rounded=0;html=1;jettySize=auto;orthogonalLoop=1;fontSize=11;endArrow=block;endFill=0;endSize=8;strokeWidth=1;shadow=0;labelBackgroundColor=none;edgeStyle=orthogonalEdgeStyle;" edge="1" parent="WIyWlLk6GJQsqaUBKTNV-1" source="WIyWlLk6GJQsqaUBKTNV-3" target="8Cwg3FQqk2ypC7bNWkIQ-1">
          <mxGeometry relative="1" as="geometry">
            <mxPoint x="220" y="70" as="sourcePoint" />
            <mxPoint x="220" y="170" as="targetPoint" />
          </mxGeometry>
        </mxCell>
        <mxCell id="8Cwg3FQqk2ypC7bNWkIQ-19" value="" style="edgeStyle=orthogonalEdgeStyle;rounded=0;orthogonalLoop=1;jettySize=auto;html=1;" edge="1" parent="WIyWlLk6GJQsqaUBKTNV-1" source="8Cwg3FQqk2ypC7bNWkIQ-1" target="8Cwg3FQqk2ypC7bNWkIQ-18">
          <mxGeometry relative="1" as="geometry" />
        </mxCell>
        <mxCell id="8Cwg3FQqk2ypC7bNWkIQ-1" value="查勘" style="whiteSpace=wrap;html=1;" vertex="1" parent="WIyWlLk6GJQsqaUBKTNV-1">
          <mxGeometry x="160" y="80" width="120" height="40" as="geometry" />
        </mxCell>
        <mxCell id="8Cwg3FQqk2ypC7bNWkIQ-21" value="" style="edgeStyle=orthogonalEdgeStyle;rounded=0;orthogonalLoop=1;jettySize=auto;html=1;" edge="1" parent="WIyWlLk6GJQsqaUBKTNV-1" source="8Cwg3FQqk2ypC7bNWkIQ-18" target="8Cwg3FQqk2ypC7bNWkIQ-20">
          <mxGeometry relative="1" as="geometry" />
        </mxCell>
        <mxCell id="8Cwg3FQqk2ypC7bNWkIQ-18" value="任务" style="whiteSpace=wrap;html=1;" vertex="1" parent="WIyWlLk6GJQsqaUBKTNV-1">
          <mxGeometry x="160" y="150" width="120" height="40" as="geometry" />
        </mxCell>
        <mxCell id="8Cwg3FQqk2ypC7bNWkIQ-23" value="" style="edgeStyle=orthogonalEdgeStyle;rounded=0;orthogonalLoop=1;jettySize=auto;html=1;" edge="1" parent="WIyWlLk6GJQsqaUBKTNV-1" source="8Cwg3FQqk2ypC7bNWkIQ-20" target="8Cwg3FQqk2ypC7bNWkIQ-22">
          <mxGeometry relative="1" as="geometry" />
        </mxCell>
        <mxCell id="8Cwg3FQqk2ypC7bNWkIQ-20" value="案件详情、保单详情、历史索赔" style="whiteSpace=wrap;html=1;" vertex="1" parent="WIyWlLk6GJQsqaUBKTNV-1">
          <mxGeometry x="130" y="220" width="180" height="40" as="geometry" />
        </mxCell>
        <mxCell id="8Cwg3FQqk2ypC7bNWkIQ-25" value="" style="edgeStyle=orthogonalEdgeStyle;rounded=0;orthogonalLoop=1;jettySize=auto;html=1;" edge="1" parent="WIyWlLk6GJQsqaUBKTNV-1" source="8Cwg3FQqk2ypC7bNWkIQ-22" target="8Cwg3FQqk2ypC7bNWkIQ-24">
          <mxGeometry relative="1" as="geometry" />
        </mxCell>
        <mxCell id="8Cwg3FQqk2ypC7bNWkIQ-27" value="" style="edgeStyle=orthogonalEdgeStyle;rounded=0;orthogonalLoop=1;jettySize=auto;html=1;" edge="1" parent="WIyWlLk6GJQsqaUBKTNV-1" source="8Cwg3FQqk2ypC7bNWkIQ-22" target="8Cwg3FQqk2ypC7bNWkIQ-26">
          <mxGeometry relative="1" as="geometry">
            <Array as="points">
              <mxPoint x="220" y="410" />
              <mxPoint x="380" y="410" />
            </Array>
          </mxGeometry>
        </mxCell>
        <mxCell id="8Cwg3FQqk2ypC7bNWkIQ-29" value="否" style="edgeLabel;html=1;align=center;verticalAlign=middle;resizable=0;points=[];" vertex="1" connectable="0" parent="8Cwg3FQqk2ypC7bNWkIQ-27">
          <mxGeometry x="-0.1583" y="-2" relative="1" as="geometry">
            <mxPoint as="offset" />
          </mxGeometry>
        </mxCell>
        <mxCell id="8Cwg3FQqk2ypC7bNWkIQ-22" value="下一步" style="rhombus;whiteSpace=wrap;html=1;" vertex="1" parent="WIyWlLk6GJQsqaUBKTNV-1">
          <mxGeometry x="180" y="320" width="80" height="60" as="geometry" />
        </mxCell>
        <mxCell id="8Cwg3FQqk2ypC7bNWkIQ-34" value="" style="edgeStyle=orthogonalEdgeStyle;rounded=0;orthogonalLoop=1;jettySize=auto;html=1;" edge="1" parent="WIyWlLk6GJQsqaUBKTNV-1" source="8Cwg3FQqk2ypC7bNWkIQ-24" target="8Cwg3FQqk2ypC7bNWkIQ-33">
          <mxGeometry relative="1" as="geometry" />
        </mxCell>
        <mxCell id="8Cwg3FQqk2ypC7bNWkIQ-55" value="" style="edgeStyle=orthogonalEdgeStyle;rounded=0;orthogonalLoop=1;jettySize=auto;html=1;" edge="1" parent="WIyWlLk6GJQsqaUBKTNV-1" source="8Cwg3FQqk2ypC7bNWkIQ-24" target="8Cwg3FQqk2ypC7bNWkIQ-54">
          <mxGeometry relative="1" as="geometry" />
        </mxCell>
        <mxCell id="8Cwg3FQqk2ypC7bNWkIQ-24" value="下一步" style="whiteSpace=wrap;html=1;" vertex="1" parent="WIyWlLk6GJQsqaUBKTNV-1">
          <mxGeometry x="160" y="460" width="120" height="40" as="geometry" />
        </mxCell>
        <mxCell id="8Cwg3FQqk2ypC7bNWkIQ-26" value="改派" style="whiteSpace=wrap;html=1;" vertex="1" parent="WIyWlLk6GJQsqaUBKTNV-1">
          <mxGeometry x="320" y="460" width="120" height="40" as="geometry" />
        </mxCell>
        <mxCell id="8Cwg3FQqk2ypC7bNWkIQ-28" value="是" style="text;html=1;align=center;verticalAlign=middle;resizable=0;points=[];autosize=1;strokeColor=none;fillColor=none;" vertex="1" parent="WIyWlLk6GJQsqaUBKTNV-1">
          <mxGeometry x="210" y="418" width="40" height="30" as="geometry" />
        </mxCell>
        <mxCell id="8Cwg3FQqk2ypC7bNWkIQ-36" value="" style="edgeStyle=orthogonalEdgeStyle;rounded=0;orthogonalLoop=1;jettySize=auto;html=1;" edge="1" parent="WIyWlLk6GJQsqaUBKTNV-1" source="8Cwg3FQqk2ypC7bNWkIQ-33" target="8Cwg3FQqk2ypC7bNWkIQ-35">
          <mxGeometry relative="1" as="geometry" />
        </mxCell>
        <mxCell id="8Cwg3FQqk2ypC7bNWkIQ-38" value="" style="edgeStyle=orthogonalEdgeStyle;rounded=0;orthogonalLoop=1;jettySize=auto;html=1;" edge="1" parent="WIyWlLk6GJQsqaUBKTNV-1" source="8Cwg3FQqk2ypC7bNWkIQ-33" target="8Cwg3FQqk2ypC7bNWkIQ-37">
          <mxGeometry relative="1" as="geometry" />
        </mxCell>
        <mxCell id="8Cwg3FQqk2ypC7bNWkIQ-40" value="否" style="edgeLabel;html=1;align=center;verticalAlign=middle;resizable=0;points=[];" vertex="1" connectable="0" parent="8Cwg3FQqk2ypC7bNWkIQ-38">
          <mxGeometry x="-0.12" y="-2" relative="1" as="geometry">
            <mxPoint as="offset" />
          </mxGeometry>
        </mxCell>
        <mxCell id="8Cwg3FQqk2ypC7bNWkIQ-33" value="完整模板" style="rhombus;whiteSpace=wrap;html=1;" vertex="1" parent="WIyWlLk6GJQsqaUBKTNV-1">
          <mxGeometry x="180" y="660" width="80" height="50" as="geometry" />
        </mxCell>
        <mxCell id="8Cwg3FQqk2ypC7bNWkIQ-42" value="" style="edgeStyle=orthogonalEdgeStyle;rounded=0;orthogonalLoop=1;jettySize=auto;html=1;" edge="1" parent="WIyWlLk6GJQsqaUBKTNV-1" source="8Cwg3FQqk2ypC7bNWkIQ-35" target="8Cwg3FQqk2ypC7bNWkIQ-41">
          <mxGeometry relative="1" as="geometry" />
        </mxCell>
        <mxCell id="8Cwg3FQqk2ypC7bNWkIQ-35" value="完整模板" style="whiteSpace=wrap;html=1;" vertex="1" parent="WIyWlLk6GJQsqaUBKTNV-1">
          <mxGeometry x="160" y="750" width="120" height="40" as="geometry" />
        </mxCell>
        <mxCell id="8Cwg3FQqk2ypC7bNWkIQ-37" value="简易模板" style="whiteSpace=wrap;html=1;" vertex="1" parent="WIyWlLk6GJQsqaUBKTNV-1">
          <mxGeometry x="20" y="662.5" width="110" height="45" as="geometry" />
        </mxCell>
        <mxCell id="8Cwg3FQqk2ypC7bNWkIQ-39" value="是" style="text;html=1;align=center;verticalAlign=middle;resizable=0;points=[];autosize=1;strokeColor=none;fillColor=none;" vertex="1" parent="WIyWlLk6GJQsqaUBKTNV-1">
          <mxGeometry x="220" y="718" width="40" height="30" as="geometry" />
        </mxCell>
        <mxCell id="8Cwg3FQqk2ypC7bNWkIQ-41" value="事故信息" style="whiteSpace=wrap;html=1;" vertex="1" parent="WIyWlLk6GJQsqaUBKTNV-1">
          <mxGeometry x="155" y="830" width="130" height="40" as="geometry" />
        </mxCell>
        <mxCell id="8Cwg3FQqk2ypC7bNWkIQ-45" value="防渗漏风险信息、标的车推荐、三者车推荐、事故信息" style="shape=parallelogram;perimeter=parallelogramPerimeter;whiteSpace=wrap;html=1;fixedSize=1;" vertex="1" parent="WIyWlLk6GJQsqaUBKTNV-1">
          <mxGeometry x="135" y="910" width="150" height="50" as="geometry" />
        </mxCell>
        <mxCell id="8Cwg3FQqk2ypC7bNWkIQ-46" value="" style="edgeStyle=none;orthogonalLoop=1;jettySize=auto;html=1;rounded=0;exitX=0.469;exitY=1.05;exitDx=0;exitDy=0;exitPerimeter=0;" edge="1" parent="WIyWlLk6GJQsqaUBKTNV-1" source="8Cwg3FQqk2ypC7bNWkIQ-41">
          <mxGeometry width="100" relative="1" as="geometry">
            <mxPoint x="180" y="880" as="sourcePoint" />
            <mxPoint x="216" y="910" as="targetPoint" />
            <Array as="points" />
          </mxGeometry>
        </mxCell>
        <mxCell id="8Cwg3FQqk2ypC7bNWkIQ-71" value="" style="edgeStyle=orthogonalEdgeStyle;rounded=0;orthogonalLoop=1;jettySize=auto;html=1;" edge="1" parent="WIyWlLk6GJQsqaUBKTNV-1" source="8Cwg3FQqk2ypC7bNWkIQ-49" target="8Cwg3FQqk2ypC7bNWkIQ-70">
          <mxGeometry relative="1" as="geometry">
            <Array as="points">
              <mxPoint x="210" y="1060" />
              <mxPoint x="70" y="1060" />
            </Array>
          </mxGeometry>
        </mxCell>
        <mxCell id="8Cwg3FQqk2ypC7bNWkIQ-73" value="" style="edgeStyle=orthogonalEdgeStyle;rounded=0;orthogonalLoop=1;jettySize=auto;html=1;" edge="1" parent="WIyWlLk6GJQsqaUBKTNV-1" source="8Cwg3FQqk2ypC7bNWkIQ-49" target="8Cwg3FQqk2ypC7bNWkIQ-72">
          <mxGeometry relative="1" as="geometry">
            <Array as="points">
              <mxPoint x="210" y="1060" />
              <mxPoint x="355" y="1060" />
            </Array>
          </mxGeometry>
        </mxCell>
        <mxCell id="8Cwg3FQqk2ypC7bNWkIQ-75" value="" style="edgeStyle=orthogonalEdgeStyle;rounded=0;orthogonalLoop=1;jettySize=auto;html=1;" edge="1" parent="WIyWlLk6GJQsqaUBKTNV-1" source="8Cwg3FQqk2ypC7bNWkIQ-49" target="8Cwg3FQqk2ypC7bNWkIQ-52">
          <mxGeometry relative="1" as="geometry" />
        </mxCell>
        <mxCell id="8Cwg3FQqk2ypC7bNWkIQ-49" value="下一步" style="rhombus;whiteSpace=wrap;html=1;" vertex="1" parent="WIyWlLk6GJQsqaUBKTNV-1">
          <mxGeometry x="170" y="1000" width="80" height="50" as="geometry" />
        </mxCell>
        <mxCell id="8Cwg3FQqk2ypC7bNWkIQ-51" value="" style="edgeStyle=none;orthogonalLoop=1;jettySize=auto;html=1;rounded=0;entryX=0.525;entryY=-0.037;entryDx=0;entryDy=0;entryPerimeter=0;exitX=0.513;exitY=1.04;exitDx=0;exitDy=0;exitPerimeter=0;" edge="1" parent="WIyWlLk6GJQsqaUBKTNV-1" source="8Cwg3FQqk2ypC7bNWkIQ-45" target="8Cwg3FQqk2ypC7bNWkIQ-49">
          <mxGeometry width="100" relative="1" as="geometry">
            <mxPoint x="160" y="970" as="sourcePoint" />
            <mxPoint x="260" y="970" as="targetPoint" />
            <Array as="points" />
          </mxGeometry>
        </mxCell>
        <mxCell id="8Cwg3FQqk2ypC7bNWkIQ-52" value="暂存" style="whiteSpace=wrap;html=1;" vertex="1" parent="WIyWlLk6GJQsqaUBKTNV-1">
          <mxGeometry x="150" y="1115" width="120" height="45" as="geometry" />
        </mxCell>
        <mxCell id="8Cwg3FQqk2ypC7bNWkIQ-65" value="" style="edgeStyle=orthogonalEdgeStyle;rounded=0;orthogonalLoop=1;jettySize=auto;html=1;" edge="1" parent="WIyWlLk6GJQsqaUBKTNV-1" source="8Cwg3FQqk2ypC7bNWkIQ-54" target="8Cwg3FQqk2ypC7bNWkIQ-33">
          <mxGeometry relative="1" as="geometry" />
        </mxCell>
        <mxCell id="8Cwg3FQqk2ypC7bNWkIQ-54" value="是否开启执法仪" style="rhombus;whiteSpace=wrap;html=1;" vertex="1" parent="WIyWlLk6GJQsqaUBKTNV-1">
          <mxGeometry x="130" y="530" width="80" height="50" as="geometry" />
        </mxCell>
        <mxCell id="8Cwg3FQqk2ypC7bNWkIQ-66" value="是、否" style="text;html=1;align=center;verticalAlign=middle;resizable=0;points=[];autosize=1;strokeColor=none;fillColor=none;" vertex="1" parent="WIyWlLk6GJQsqaUBKTNV-1">
          <mxGeometry x="120" y="588" width="60" height="30" as="geometry" />
        </mxCell>
        <mxCell id="8Cwg3FQqk2ypC7bNWkIQ-78" value="" style="edgeStyle=orthogonalEdgeStyle;rounded=0;orthogonalLoop=1;jettySize=auto;html=1;" edge="1" parent="WIyWlLk6GJQsqaUBKTNV-1" source="8Cwg3FQqk2ypC7bNWkIQ-70" target="8Cwg3FQqk2ypC7bNWkIQ-77">
          <mxGeometry relative="1" as="geometry" />
        </mxCell>
        <mxCell id="8Cwg3FQqk2ypC7bNWkIQ-70" value="影像" style="whiteSpace=wrap;html=1;" vertex="1" parent="WIyWlLk6GJQsqaUBKTNV-1">
          <mxGeometry x="10" y="1115" width="120" height="45" as="geometry" />
        </mxCell>
        <mxCell id="8Cwg3FQqk2ypC7bNWkIQ-86" value="" style="edgeStyle=orthogonalEdgeStyle;rounded=0;orthogonalLoop=1;jettySize=auto;html=1;" edge="1" parent="WIyWlLk6GJQsqaUBKTNV-1" source="8Cwg3FQqk2ypC7bNWkIQ-72" target="8Cwg3FQqk2ypC7bNWkIQ-85">
          <mxGeometry relative="1" as="geometry" />
        </mxCell>
        <mxCell id="8Cwg3FQqk2ypC7bNWkIQ-72" value="下一步" style="whiteSpace=wrap;html=1;" vertex="1" parent="WIyWlLk6GJQsqaUBKTNV-1">
          <mxGeometry x="300" y="1117.5" width="110" height="42.5" as="geometry" />
        </mxCell>
        <mxCell id="8Cwg3FQqk2ypC7bNWkIQ-80" value="" style="edgeStyle=orthogonalEdgeStyle;rounded=0;orthogonalLoop=1;jettySize=auto;html=1;" edge="1" parent="WIyWlLk6GJQsqaUBKTNV-1" source="8Cwg3FQqk2ypC7bNWkIQ-77" target="8Cwg3FQqk2ypC7bNWkIQ-79">
          <mxGeometry relative="1" as="geometry" />
        </mxCell>
        <mxCell id="8Cwg3FQqk2ypC7bNWkIQ-77" value="照片查看" style="whiteSpace=wrap;html=1;" vertex="1" parent="WIyWlLk6GJQsqaUBKTNV-1">
          <mxGeometry x="10" y="1190" width="120" height="45" as="geometry" />
        </mxCell>
        <mxCell id="8Cwg3FQqk2ypC7bNWkIQ-82" value="" style="edgeStyle=orthogonalEdgeStyle;rounded=0;orthogonalLoop=1;jettySize=auto;html=1;" edge="1" parent="WIyWlLk6GJQsqaUBKTNV-1" source="8Cwg3FQqk2ypC7bNWkIQ-79" target="8Cwg3FQqk2ypC7bNWkIQ-81">
          <mxGeometry relative="1" as="geometry" />
        </mxCell>
        <mxCell id="8Cwg3FQqk2ypC7bNWkIQ-79" value="拍照" style="whiteSpace=wrap;html=1;" vertex="1" parent="WIyWlLk6GJQsqaUBKTNV-1">
          <mxGeometry x="10" y="1270" width="120" height="45" as="geometry" />
        </mxCell>
        <mxCell id="8Cwg3FQqk2ypC7bNWkIQ-84" value="" style="edgeStyle=orthogonalEdgeStyle;rounded=0;orthogonalLoop=1;jettySize=auto;html=1;" edge="1" parent="WIyWlLk6GJQsqaUBKTNV-1" source="8Cwg3FQqk2ypC7bNWkIQ-81" target="8Cwg3FQqk2ypC7bNWkIQ-83">
          <mxGeometry relative="1" as="geometry" />
        </mxCell>
        <mxCell id="8Cwg3FQqk2ypC7bNWkIQ-81" value="影像上传" style="whiteSpace=wrap;html=1;" vertex="1" parent="WIyWlLk6GJQsqaUBKTNV-1">
          <mxGeometry x="10" y="1360" width="120" height="45" as="geometry" />
        </mxCell>
        <mxCell id="8Cwg3FQqk2ypC7bNWkIQ-83" value="上传" style="whiteSpace=wrap;html=1;" vertex="1" parent="WIyWlLk6GJQsqaUBKTNV-1">
          <mxGeometry x="10" y="1440" width="120" height="45" as="geometry" />
        </mxCell>
        <mxCell id="8Cwg3FQqk2ypC7bNWkIQ-88" value="" style="edgeStyle=orthogonalEdgeStyle;rounded=0;orthogonalLoop=1;jettySize=auto;html=1;" edge="1" parent="WIyWlLk6GJQsqaUBKTNV-1" source="8Cwg3FQqk2ypC7bNWkIQ-85" target="8Cwg3FQqk2ypC7bNWkIQ-87">
          <mxGeometry relative="1" as="geometry" />
        </mxCell>
        <mxCell id="8Cwg3FQqk2ypC7bNWkIQ-85" value="损失项" style="whiteSpace=wrap;html=1;" vertex="1" parent="WIyWlLk6GJQsqaUBKTNV-1">
          <mxGeometry x="300" y="1190" width="110" height="42.5" as="geometry" />
        </mxCell>
        <mxCell id="8Cwg3FQqk2ypC7bNWkIQ-90" value="" style="edgeStyle=orthogonalEdgeStyle;rounded=0;orthogonalLoop=1;jettySize=auto;html=1;" edge="1" parent="WIyWlLk6GJQsqaUBKTNV-1" source="8Cwg3FQqk2ypC7bNWkIQ-87" target="8Cwg3FQqk2ypC7bNWkIQ-89">
          <mxGeometry relative="1" as="geometry" />
        </mxCell>
        <mxCell id="8Cwg3FQqk2ypC7bNWkIQ-87" value="查勘报告" style="whiteSpace=wrap;html=1;" vertex="1" parent="WIyWlLk6GJQsqaUBKTNV-1">
          <mxGeometry x="300" y="1272.5" width="110" height="42.5" as="geometry" />
        </mxCell>
        <mxCell id="8Cwg3FQqk2ypC7bNWkIQ-89" value="提交" style="whiteSpace=wrap;html=1;" vertex="1" parent="WIyWlLk6GJQsqaUBKTNV-1">
          <mxGeometry x="300" y="1350" width="110" height="42.5" as="geometry" />
        </mxCell>
      </root>
    </mxGraphModel>
  </diagram>
</mxfile>
